version = 1
nColumns = 19
nRows = 15
inDegrees = yes
endheader 
time	r_ground_force_vx	r_ground_force_vy	r_ground_force_vz	r_ground_force_px	r_ground_force_py	r_ground_force_pz	l_ground_force_vx	l_ground_force_vy	l_ground_force_vz	l_ground_force_px	l_ground_force_py	l_ground_force_pz	r_ground_torque_x	r_ground_torque_y	r_ground_torque_z	l_ground_torque_x	l_ground_torque_y	l_ground_torque_z	
          0.20232652	          0.00000000	          0.00000000	          0.00000000	          0.00000000	          0.00000000	          0.00000000	          0.00000000	          0.00000000	          0.00000000	          0.00000000	          0.00000000	          0.00000000	          0.00000000	          0.00000000	          0.00000000	          0.00000000	          0.00000000	          0.00000000	
          0.20295394	          0.00000000	          0.00000000	          0.00000000	          0.00000000	          0.00000000	          0.00000000	          0.00000000	          0.00000000	          0.00000000	          0.00000000	          0.00000000	          0.00000000	          0.00000000	          0.00000000	          0.00000000	          0.00000000	          0.00000000	          0.00000000	
          0.20493632	          0.00000000	          0.00000000	          0.00000000	          0.00000000	          0.00000000	          0.00000000	          0.00000000	          0.00000000	          0.00000000	          0.00000000	          0.00000000	          0.00000000	          0.00000000	          0.00000000	          0.00000000	          0.00000000	          0.00000000	          0.00000000	
          0.20637305	          0.00000000	          0.00000000	          0.00000000	          0.00000000	          0.00000000	          0.00000000	          0.00000000	          0.00000000	          0.00000000	          0.00000000	          0.00000000	          0.00000000	          0.00000000	          0.00000000	          0.00000000	          0.00000000	          0.00000000	          0.00000000	
          0.20700047	          0.00000000	          0.00000000	          0.00000000	          0.00000000	          0.00000000	          0.00000000	          0.00000000	          0.00000000	          0.00000000	          0.00000000	          0.00000000	          0.00000000	          0.00000000	          0.00000000	          0.00000000	          0.00000000	          0.00000000	          0.00000000	
          0.20898285	          0.00000000	          0.00000000	          0.00000000	          0.00000000	          0.00000000	          0.00000000	        -57.56136323	         31.98590796	         -6.98073884	          0.16883385	          0.00000000	          0.00284493	          0.00000000	          0.00000000	          0.00000000	          0.00000000	          0.00002248	          0.00000000	
          0.21041958	          0.00000000	          0.00000000	          0.00000000	          0.00000000	          0.00000000	          0.00000000	        -97.62782480	         59.84527286	        -20.51377835	          0.17004428	          0.00000000	          0.00298647	          0.00000000	          0.00000000	          0.00000000	          0.00000000	          0.00032153	          0.00000000	
          0.21104700	          0.00000000	          0.00000000	          0.00000000	          0.00000000	          0.00000000	          0.00000000	       -124.66874697	         80.44579887	        -31.21603125	          0.17064090	          0.00000000	          0.00298115	          0.00000000	          0.00000000	          0.00000000	          0.00000000	          0.00111136	          0.00000000	
          0.21302938	          0.00000000	          0.00000000	          0.00000000	          0.00000000	          0.00000000	          0.00000000	       -242.90370381	        212.67422760	       -117.79904969	          0.17422355	          0.00000000	          0.00303355	          0.00000000	          0.00000000	          0.00000000	          0.00000000	          0.13461187	          0.00000000	
          0.21446611	          0.00000000	          0.00000000	          0.00000000	          0.00000000	          0.00000000	          0.00000000	       -342.06415893	        402.07834003	       -222.41289926	          0.20063948	          0.00000000	          0.00658720	          0.00000000	          0.00000000	          0.00000000	          0.00000000	          2.26998487	          0.00000000	
          0.21509353	          0.00000000	          0.00000000	          0.00000000	          0.00000000	          0.00000000	          0.00000000	       -451.29548467	        583.28780594	       -150.70388763	          0.23373609	          0.00000000	          0.01118398	          0.00000000	          0.00000000	          0.00000000	          0.00000000	          0.44865117	          0.00000000	
          0.21707591	          0.00000000	          0.00000000	          0.00000000	          0.00000000	          0.00000000	          0.00000000	      -1851.89974822	       3232.11184579	        225.96726011	          0.28031594	          0.00000000	          0.01912044	          0.00000000	          0.00000000	          0.00000000	          0.00000000	         98.99514701	          0.00000000	
          0.21851264	          0.00000000	          0.00000000	          0.00000000	          0.00000000	          0.00000000	          0.00000000	      -1422.03230086	       4359.91885330	        143.48557890	          0.25604580	          0.00000000	          0.01757357	          0.00000000	          0.00000000	          0.00000000	          0.00000000	        123.10661469	          0.00000000	
          0.21914006	          0.00000000	          0.00000000	          0.00000000	          0.00000000	          0.00000000	          0.00000000	       -868.98352673	       4618.70274937	        -47.04204691	          0.24363786	          0.00000000	          0.01617413	          0.00000000	          0.00000000	          0.00000000	          0.00000000	         88.25170477	          0.00000000	
          0.22112244	          0.00000000	          0.00000000	          0.00000000	          0.00000000	          0.00000000	          0.00000000	       -342.57645757	       5257.62006367	       -208.51342342	          0.23487167	          0.00000000	          0.01526687	          0.00000000	          0.00000000	          0.00000000	          0.00000000	         74.88152633	          0.00000000	
